<svg width="32" height="32" viewBox="0 0 32 32" fill="none" xmlns="http://www.w3.org/2000/svg">
  <!-- PCB board background -->
  <rect x="3" y="3" width="26" height="26" rx="3" fill="black" stroke="white" stroke-width="1.5"/>
  <!-- CPU chip center -->
  <rect x="10" y="10" width="12" height="12" rx="1.5" fill="black" stroke="white" stroke-width="1.3"/>
  <!-- pins left -->
  <line x1="3" y1="12" x2="10" y2="12" stroke="white" stroke-width="1.1"/>
  <line x1="3" y1="16" x2="10" y2="16" stroke="white" stroke-width="1.1"/>
  <line x1="3" y1="20" x2="10" y2="20" stroke="white" stroke-width="1.1"/>
  <!-- pins right -->
  <line x1="22" y1="12" x2="29" y2="12" stroke="white" stroke-width="1.1"/>
  <line x1="22" y1="16" x2="29" y2="16" stroke="white" stroke-width="1.1"/>
  <line x1="22" y1="20" x2="29" y2="20" stroke="white" stroke-width="1.1"/>
  <!-- pins top -->
  <line x1="12" y1="3" x2="12" y2="10" stroke="white" stroke-width="1.1"/>
  <line x1="16" y1="3" x2="16" y2="10" stroke="white" stroke-width="1.1"/>
  <line x1="20" y1="3" x2="20" y2="10" stroke="white" stroke-width="1.1"/>
  <!-- pins bottom -->
  <line x1="12" y1="22" x2="12" y2="29" stroke="white" stroke-width="1.1"/>
  <line x1="16" y1="22" x2="16" y2="29" stroke="white" stroke-width="1.1"/>
  <line x1="20" y1="22" x2="20" y2="29" stroke="white" stroke-width="1.1"/>
</svg>
